<?xml version="1.0" encoding="utf-8"?>
<!-- Generator: Adobe Illustrator 23.0.2, SVG Export Plug-In . SVG Version: 6.00 Build 0)  -->
<svg version="1.1" id="Capa_1" xmlns="http://www.w3.org/2000/svg" xmlns:xlink="http://www.w3.org/1999/xlink" x="0px" y="0px"
	 viewBox="0 0 24 24" style="enable-background:new 0 0 24 24;" xml:space="preserve">
<g>
	<path d="M23.8,6.4l-1.2-1.2C22.4,5.1,22.2,5,22,5c-0.2,0-0.4,0.1-0.6,0.2L12,14.7L2.5,5.2C2.4,5.1,2.2,5,2,5C1.8,5,1.6,5.1,1.4,5.2
		L0.2,6.4C0.1,6.6,0,6.8,0,7c0,0.2,0.1,0.4,0.2,0.6l11.2,11.2c0.2,0.2,0.3,0.2,0.6,0.2c0.2,0,0.4-0.1,0.6-0.2L23.8,7.6
		C23.9,7.4,24,7.2,24,7C24,6.8,23.9,6.6,23.8,6.4z"/>
</g>
</svg>
